<?xml version="1.0" standalone="no"?>
<!DOCTYPE svg PUBLIC "-//W3C//DTD SVG 20010904//EN"
 "http://www.w3.org/TR/2001/REC-SVG-20010904/DTD/svg10.dtd">
<svg version="1.0" xmlns="http://www.w3.org/2000/svg"
 width="300.000000pt" height="300.000000pt" viewBox="0 0 300.000000 300.000000"
 preserveAspectRatio="xMidYMid meet">
<metadata>
Created by potrace 1.11, written by Peter Selinger 2001-2013
</metadata>
<g transform="translate(0.000000,300.000000) scale(0.100000,-0.100000)"
fill="#000000" stroke="none">
<path d="M577 2979 c-287 -70 -504 -297 -563 -589 -11 -52 -13 -241 -11 -915
2 -467 6 -863 10 -878 81 -308 287 -513 583 -580 59 -14 181 -16 889 -17 827
0 878 2 990 37 261 82 450 292 511 568 10 47 12 239 11 920 -3 935 1 875 -59
1021 -78 190 -250 346 -458 417 l-95 32 -865 2 c-821 1 -869 1 -943 -18z"/>
</g>
</svg>
